<svg width="800" height="450" viewBox="0 0 800 450" xmlns="http://www.w3.org/2000/svg">
  <defs>
    <linearGradient id="skyGrad" x1="0%" y1="0%" x2="0%" y2="100%">
      <stop offset="0%" style="stop-color:#87CEEB;stop-opacity:1" />
      <stop offset="100%" style="stop-color:#E0F6FF;stop-opacity:1" />
    </linearGradient>
    <linearGradient id="hillGrad1" x1="0%" y1="0%" x2="0%" y2="100%">
      <stop offset="0%" style="stop-color:#4A7C59;stop-opacity:1" />
      <stop offset="100%" style="stop-color:#2D5016;stop-opacity:1" />
    </linearGradient>
    <linearGradient id="hillGrad2" x1="0%" y1="0%" x2="0%" y2="100%">
      <stop offset="0%" style="stop-color:#5D9C59;stop-opacity:1" />
      <stop offset="100%" style="stop-color:#3A6B35;stop-opacity:1" />
    </linearGradient>
    <linearGradient id="hillGrad3" x1="0%" y1="0%" x2="0%" y2="100%">
      <stop offset="0%" style="stop-color:#76B947;stop-opacity:1" />
      <stop offset="100%" style="stop-color:#4A7C2F;stop-opacity:1" />
    </linearGradient>
  </defs>

  <!-- Sky -->
  <rect width="800" height="450" fill="url(#skyGrad)"/>

  <!-- Sun -->
  <circle cx="680" cy="80" r="50" fill="#FCD116" opacity="0.9"/>
  <circle cx="680" cy="80" r="60" fill="#FCD116" opacity="0.3"/>

  <!-- Far hills -->
  <ellipse cx="200" cy="280" rx="250" ry="120" fill="url(#hillGrad1)"/>
  <ellipse cx="600" cy="300" rx="280" ry="140" fill="url(#hillGrad1)"/>

  <!-- Middle hills -->
  <path d="M 0 320 Q 150 220 300 260 T 600 240 T 800 280 L 800 450 L 0 450 Z" fill="url(#hillGrad2)"/>

  <!-- Foreground hills -->
  <path d="M 0 350 Q 200 280 400 320 T 800 340 L 800 450 L 0 450 Z" fill="url(#hillGrad3)"/>

  <!-- Trees on hills -->
  <g opacity="0.7">
    <ellipse cx="120" cy="340" rx="15" ry="25" fill="#2D5016"/>
    <ellipse cx="180" cy="330" rx="12" ry="20" fill="#2D5016"/>
    <ellipse cx="250" cy="355" rx="18" ry="30" fill="#2D5016"/>
    <ellipse cx="320" cy="345" rx="14" ry="24" fill="#2D5016"/>
    <ellipse cx="450" cy="315" rx="16" ry="28" fill="#2D5016"/>
    <ellipse cx="520" cy="325" rx="13" ry="22" fill="#2D5016"/>
    <ellipse cx="650" cy="335" rx="17" ry="29" fill="#2D5016"/>
    <ellipse cx="720" cy="340" rx="15" ry="25" fill="#2D5016"/>
  </g>

  <!-- Grass field -->
  <rect y="380" width="800" height="70" fill="#7CB342" opacity="0.6"/>

  <!-- Label background -->
  <rect y="410" width="800" height="40" fill="#000000" opacity="0.6"/>

  <!-- Location text -->
  <text x="400" y="435" font-family="Arial, sans-serif" font-size="28" font-weight="bold" fill="#FFFFFF" text-anchor="middle">FUSAGASUGÁ</text>
</svg>