<svg width="800" height="450" xmlns="http://www.w3.org/2000/svg">
  <!-- Background gradient -->
  <defs>
    <linearGradient id="waterInitGrad" x1="0%" y1="0%" x2="100%" y2="100%">
      <stop offset="0%" style="stop-color:#06b6d4;stop-opacity:1" />
      <stop offset="100%" style="stop-color:#0891b2;stop-opacity:1" />
    </linearGradient>
  </defs>

  <!-- Background -->
  <rect width="800" height="450" fill="url(#waterInitGrad)"/>
  <rect width="800" height="450" fill="#000000" opacity="0.15"/>

  <!-- Water waves -->
  <path d="M 0 300 Q 100 280 200 300 T 400 300 T 600 300 T 800 300 L 800 450 L 0 450 Z" fill="#ffffff" opacity="0.2"/>
  <path d="M 0 320 Q 100 310 200 320 T 400 320 T 600 320 T 800 320 L 800 450 L 0 450 Z" fill="#ffffff" opacity="0.15"/>

  <!-- Water droplets falling -->
  <circle cx="250" cy="140" r="15" fill="#ffffff" opacity="0.6"/>
  <circle cx="400" cy="180" r="20" fill="#ffffff" opacity="0.7"/>
  <circle cx="550" cy="160" r="18" fill="#ffffff" opacity="0.6"/>

  <!-- Hands holding water -->
  <ellipse cx="400" cy="240" rx="60" ry="40" fill="#0891b2" opacity="0.8"/>
  <path d="M 340 240 Q 340 220 360 220 L 360 260 Z" fill="#ffffff" opacity="0.7"/>
  <path d="M 460 240 Q 460 220 440 220 L 440 260 Z" fill="#ffffff" opacity="0.7"/>

  <!-- Text -->
  <text x="400" y="390" font-family="Arial, sans-serif" font-size="32" font-weight="bold" fill="#ffffff" text-anchor="middle">Clean Water Initiative</text>
  <text x="400" y="420" font-family="Arial, sans-serif" font-size="18" fill="#ffffff" text-anchor="middle" opacity="0.9">Infrastructure • San Vicente</text>
</svg>
