<svg width="800" height="450" xmlns="http://www.w3.org/2000/svg">
  <!-- Background gradient -->
  <defs>
    <linearGradient id="waterGrad" x1="0%" y1="0%" x2="100%" y2="100%">
      <stop offset="0%" style="stop-color:#3b82f6;stop-opacity:1" />
      <stop offset="100%" style="stop-color:#1d4ed8;stop-opacity:1" />
    </linearGradient>
  </defs>

  <!-- Background -->
  <rect width="800" height="450" fill="url(#waterGrad)"/>

  <!-- Overlay -->
  <rect width="800" height="450" fill="#000000" opacity="0.1"/>

  <!-- Water drops -->
  <ellipse cx="300" cy="150" rx="40" ry="50" fill="#ffffff" opacity="0.3"/>
  <ellipse cx="300" cy="150" rx="30" ry="40" fill="#ffffff" opacity="0.5"/>
  <ellipse cx="500" cy="200" rx="35" ry="45" fill="#ffffff" opacity="0.3"/>
  <ellipse cx="500" cy="200" rx="25" ry="35" fill="#ffffff" opacity="0.5"/>

  <!-- Water tap/faucet -->
  <rect x="350" y="220" width="100" height="15" fill="#ffffff" opacity="0.9" rx="7"/>
  <rect x="395" y="210" width="10" height="30" fill="#ffffff" opacity="0.9"/>
  <path d="M 400 235 Q 400 260 390 285 L 390 300 L 410 300 L 410 285 Q 400 260 400 235" fill="#60a5fa" opacity="0.8"/>

  <!-- Mountains in background -->
  <polygon points="150,350 250,250 350,350" fill="#1e3a8a" opacity="0.3"/>
  <polygon points="450,350 550,220 650,350" fill="#1e3a8a" opacity="0.3"/>

  <!-- Text -->
  <text x="400" y="395" font-family="Arial, sans-serif" font-size="32" font-weight="bold" fill="#ffffff" text-anchor="middle">Clean Water System</text>
  <text x="400" y="425" font-family="Arial, sans-serif" font-size="18" fill="#ffffff" text-anchor="middle" opacity="0.9">Infrastructure • Silvania</text>
</svg>
